<?xml version="1.0" standalone="no"?>
<!DOCTYPE svg PUBLIC "-//W3C//DTD SVG 20010904//EN"
 "http://www.w3.org/TR/2001/REC-SVG-20010904/DTD/svg10.dtd">
<svg version="1.0" xmlns="http://www.w3.org/2000/svg"
 width="200.000000pt" height="200.000000pt" viewBox="0 0 200.000000 200.000000"
 preserveAspectRatio="xMidYMid meet">

<g transform="translate(0.000000,200.000000) scale(0.100000,-0.100000)"
fill="#000000" stroke="none">
<path d="M707 1793 c-8 -10 -18 -35 -22 -56 -10 -51 -44 -90 -123 -139 -76
-49 -122 -107 -122 -155 0 -37 29 -73 60 -73 23 0 60 33 60 53 0 18 45 58 102
90 85 49 148 147 148 232 0 57 -67 87 -103 48z"/>
<path d="M1086 1797 c-9 -7 -22 -32 -27 -56 -14 -61 -42 -97 -104 -132 -106
-60 -165 -152 -131 -204 32 -49 87 -40 111 19 10 23 37 48 93 84 88 57 133
115 151 192 14 62 14 67 -9 90 -23 23 -58 26 -84 7z"/>
<path d="M1457 1793 c-8 -10 -18 -35 -22 -56 -10 -51 -43 -88 -125 -141 -77
-50 -110 -91 -117 -145 -9 -67 53 -105 97 -61 11 11 20 26 20 33 0 18 45 58
102 90 85 49 148 147 148 232 0 57 -67 87 -103 48z"/>
<path d="M145 1230 c-41 -45 0 -291 72 -435 59 -118 207 -282 302 -337 l41
-23 0 -131 c0 -115 2 -135 19 -155 l19 -24 402 0 402 0 19 24 c16 20 19 41 19
155 l1 131 55 35 c79 49 204 183 258 276 65 111 106 245 113 367 9 154 116
137 -867 137 -823 0 -837 0 -855 -20z m1599 -109 c3 -5 1 -34 -5 -65 l-12 -56
-718 0 c-396 0 -722 0 -726 -1 -8 0 -30 80 -32 114 -1 16 41 17 743 17 423 0
747 -4 750 -9z m-89 -298 c-100 -174 -251 -294 -445 -355 -109 -33 -311 -33
-420 0 -194 61 -345 181 -445 355 l-27 47 682 0 682 0 -27 -47z m-630 -500
c117 3 164 9 215 26 36 11 66 21 68 21 1 0 2 -27 2 -60 l0 -60 -310 0 -310 0
0 58 0 58 93 -24 c82 -21 108 -23 242 -19z"/>
</g>
</svg>
